<svg width="16" height="20" viewBox="0 0 16 20" fill="none" xmlns="http://www.w3.org/2000/svg">
<path d="M11.1917 15.1467C11.2559 15.1187 11.326 15.1072 11.3957 15.1131C11.4655 15.119 11.5326 15.1423 11.5911 15.1807C11.6496 15.2191 11.6976 15.2716 11.7307 15.3332C11.7638 15.3949 11.781 15.4638 11.7808 15.5338V19.5561C11.7804 19.625 11.7632 19.6928 11.7305 19.7535C11.6978 19.8141 11.6508 19.8659 11.5934 19.9041C11.5361 19.9423 11.4702 19.9659 11.4017 19.9727C11.3331 19.9795 11.2639 19.9694 11.2002 19.9432L8.19606 18.7651C7.79372 18.6036 7.34458 18.6036 6.94225 18.7651L3.94656 19.9684C3.88216 19.9949 3.8122 20.005 3.74295 19.9977C3.67369 19.9905 3.60732 19.9662 3.54977 19.927C3.49222 19.8878 3.44531 19.8349 3.41322 19.7731C3.38114 19.7113 3.36489 19.6425 3.36594 19.5729V15.5506C3.3628 15.4792 3.3779 15.4082 3.40981 15.3443C3.44172 15.2803 3.4894 15.2256 3.54833 15.1852C3.60727 15.1447 3.67553 15.12 3.74668 15.1133C3.81783 15.1066 3.88951 15.1181 3.95498 15.1467C5.08409 15.6892 6.32071 15.9708 7.57336 15.9708C8.82601 15.9708 10.0626 15.6892 11.1917 15.1467ZM15.1467 7.57336C15.1467 9.07123 14.7025 10.5355 13.8704 11.7809C13.0382 13.0263 11.8554 13.997 10.4716 14.5702C9.08771 15.1434 7.56496 15.2934 6.09587 15.0012C4.62678 14.709 3.27734 13.9877 2.21819 12.9285C1.15904 11.8694 0.437743 10.5199 0.145523 9.05085C-0.146696 7.58176 0.00328138 6.05901 0.576491 4.67516C1.1497 3.29131 2.1204 2.10851 3.36583 1.27634C4.61126 0.44417 6.07549 -3.86292e-09 7.57336 0C9.58194 5.18001e-09 11.5083 0.797905 12.9285 2.21818C14.3488 3.63847 15.1467 5.56478 15.1467 7.57336ZM10.6953 5.29294C10.5376 5.13621 10.3243 5.04824 10.102 5.04824C9.87971 5.04824 9.66644 5.13621 9.50877 5.29294L6.73188 8.06983L5.64636 6.9759C5.48791 6.81745 5.273 6.72843 5.04891 6.72843C4.82482 6.72843 4.60991 6.81745 4.45145 6.9759C4.293 7.13436 4.20398 7.34927 4.20398 7.57336C4.20398 7.79745 4.293 8.01236 4.45145 8.17081L6.13442 9.85378C6.29209 10.0105 6.50536 10.0985 6.72767 10.0985C6.94998 10.0985 7.16325 10.0105 7.32092 9.85378L10.6869 6.48784C10.7663 6.41017 10.8295 6.31754 10.873 6.2153C10.9164 6.11306 10.9392 6.00323 10.94 5.89214C10.9408 5.78106 10.9195 5.67091 10.8775 5.56807C10.8355 5.46523 10.7736 5.37172 10.6953 5.29294Z" fill="#3E2AD1"/>
</svg>
